<svg width="565" height="565" xmlns="http://www.w3.org/2000/svg" xmlns:xlink="http://www.w3.org/1999/xlink" overflow="hidden"><defs><clipPath id="clip0"><rect x="1069" y="1074" width="565" height="565"/></clipPath><linearGradient x1="1227.66" y1="1016.25" x2="1475.34" y2="1696.75" gradientUnits="userSpaceOnUse" spreadMethod="reflect" id="fill1"><stop offset="0" stop-color="#229672"/><stop offset="0.04" stop-color="#229672"/><stop offset="0.85" stop-color="#16605C"/><stop offset="1" stop-color="#16605C"/></linearGradient><linearGradient x1="1537.47" y1="1060.36" x2="1596.53" y2="1222.64" gradientUnits="userSpaceOnUse" spreadMethod="reflect" id="fill2"><stop offset="0" stop-color="#229672"/><stop offset="0.0172414" stop-color="#229773"/><stop offset="0.0344828" stop-color="#239974"/><stop offset="0.0517241" stop-color="#239B76"/><stop offset="0.0689655" stop-color="#249D77"/><stop offset="0.0862069" stop-color="#259F79"/><stop offset="0.103448" stop-color="#25A07A"/><stop offset="0.12069" stop-color="#26A27C"/><stop offset="0.137931" stop-color="#27A47D"/><stop offset="0.155172" stop-color="#27A57E"/><stop offset="0.172414" stop-color="#28A780"/><stop offset="0.189655" stop-color="#28A981"/><stop offset="0.206897" stop-color="#29AA82"/><stop offset="0.224138" stop-color="#29AC83"/><stop offset="0.241379" stop-color="#2AAD85"/><stop offset="0.258621" stop-color="#2BAF86"/><stop offset="0.275862" stop-color="#2BB087"/><stop offset="0.293103" stop-color="#2CB288"/><stop offset="0.310345" stop-color="#2CB389"/><stop offset="0.327586" stop-color="#2DB48A"/><stop offset="0.344828" stop-color="#2DB68B"/><stop offset="0.362069" stop-color="#2DB78C"/><stop offset="0.37931" stop-color="#2EB88D"/><stop offset="0.396552" stop-color="#2EBA8E"/><stop offset="0.413793" stop-color="#2FBB8F"/><stop offset="0.431034" stop-color="#2FBC90"/><stop offset="0.448276" stop-color="#30BD91"/><stop offset="0.465517" stop-color="#30BE92"/><stop offset="0.482759" stop-color="#30BF93"/><stop offset="0.5" stop-color="#31C094"/><stop offset="0.517241" stop-color="#31C195"/><stop offset="0.534483" stop-color="#31C295"/><stop offset="0.551724" stop-color="#32C396"/><stop offset="0.568965" stop-color="#32C497"/><stop offset="0.586207" stop-color="#32C598"/><stop offset="0.603448" stop-color="#33C698"/><stop offset="0.62069" stop-color="#33C799"/><stop offset="0.637931" stop-color="#33C89A"/><stop offset="0.655172" stop-color="#34C89A"/><stop offset="0.672414" stop-color="#34C99B"/><stop offset="0.689655" stop-color="#34CA9B"/><stop offset="0.706897" stop-color="#34CB9C"/><stop offset="0.724138" stop-color="#35CB9C"/><stop offset="0.741379" stop-color="#35CC9D"/><stop offset="0.758621" stop-color="#35CC9D"/><stop offset="0.775862" stop-color="#35CD9E"/><stop offset="0.793103" stop-color="#35CD9E"/><stop offset="0.810345" stop-color="#36CE9E"/><stop offset="0.827586" stop-color="#36CE9F"/><stop offset="0.844828" stop-color="#36CF9F"/><stop offset="0.862069" stop-color="#36CF9F"/><stop offset="0.87931" stop-color="#36CFA0"/><stop offset="0.896552" stop-color="#36D0A0"/><stop offset="0.913793" stop-color="#36D0A0"/><stop offset="0.931035" stop-color="#36D0A0"/><stop offset="0.948276" stop-color="#36D0A0"/><stop offset="0.965517" stop-color="#36D0A0"/><stop offset="0.982759" stop-color="#36D0A0"/><stop offset="1" stop-color="#37D1A1"/></linearGradient></defs><g clip-path="url(#clip0)" transform="translate(-1069 -1074)"><path d="M1617.78 1572.65 1618.34 1573.03 1626.56 1581.25 1626.94 1581.82 1626.94 1581.81 1626.94 1581.81 1618.02 1572.89ZM1105.69 1074C1110.76 1074 1115.58 1075.03 1119.97 1076.88L1126.73 1081.44 1134.95 1089.66 1617.78 1572.65 1618.02 1572.89 1626.94 1581.81 1631.12 1588.01C1632.97 1592.4 1634 1597.23 1634 1602.3 1634 1622.57 1617.57 1639 1597.31 1639L1105.69 1639C1085.43 1639 1069 1622.57 1069 1602.3L1069 1110.7C1069 1090.43 1085.43 1074 1105.69 1074Z" fill="url(#fill1)" fill-rule="evenodd"/><path d="M1597.3 1292C1602.37 1292 1607.2 1293.03 1611.59 1294.88L1618.34 1299.43 1626.56 1307.64 1631.12 1314.39C1632.97 1318.78 1634 1323.6 1634 1328.66L1634 1602.34C1634 1597.28 1632.97 1592.46 1631.12 1588.07L1626.56 1581.32 1618.34 1573.11 1611.59 1568.56 1602.11 1566.65 1602.11 1566.65 1611.59 1568.56 1618.34 1573.11 1626.56 1581.32 1631.12 1588.07C1632.97 1592.46 1634 1597.28 1634 1602.34 1634 1617.53 1624.76 1630.55 1611.59 1636.12L1602.11 1638.03 1602.11 1639 1597.3 1639 1597.3 1639 1127.35 1639 1127.35 1639 1105.59 1639 1105.59 1639 1105.58 1639 1091.3 1636.12C1082.52 1632.41 1075.48 1625.38 1071.77 1616.61L1070 1607.87 1126.84 1573.33 1134.84 1581.32 1138.22 1586.33 1138.22 1586.33 1134.84 1581.32 1126.84 1573.33 1570.79 1303.57 1586.12 1294.25Z" fill="#37D1A1" fill-rule="evenodd"/><path d="M1500 1141.5C1500 1104.22 1530 1074 1567 1074 1604 1074 1634 1104.22 1634 1141.5 1634 1178.78 1604 1209 1567 1209 1530 1209 1500 1178.78 1500 1141.5Z" fill="url(#fill2)" fill-rule="evenodd"/></g></svg>